<svg xmlns="http://www.w3.org/2000/svg" viewBox="0 0 1584 396" role="img" aria-label="Trovant Talent — LinkedIn banner">
  <defs>
    <linearGradient id="bg" x1="0" y1="0" x2="1" y2="1">
      <stop offset="0" stop-color="#ffffff"/>
      <stop offset="1" stop-color="#eef7f3"/>
    </linearGradient>
    <linearGradient id="tile" x1="0" y1="0" x2="1" y2="1">
      <stop offset="0" stop-color="#10b981"/>
      <stop offset="1" stop-color="#0d9488"/>
    </linearGradient>
  </defs>

  <rect width="1584" height="396" fill="url(#bg)"/>
  <!-- Soft accent shapes on the right -->
  <circle cx="1480" cy="60" r="240" fill="#10b981" fill-opacity="0.08"/>
  <circle cx="1380" cy="360" r="160" fill="#0d9488" fill-opacity="0.07"/>
  <!-- Dot grid accent -->
  <g fill="#0d9488" fill-opacity="0.18">
    <circle cx="1150" cy="250" r="3"/><circle cx="1180" cy="250" r="3"/><circle cx="1210" cy="250" r="3"/><circle cx="1240" cy="250" r="3"/>
    <circle cx="1150" cy="280" r="3"/><circle cx="1180" cy="280" r="3"/><circle cx="1210" cy="280" r="3"/><circle cx="1240" cy="280" r="3"/>
    <circle cx="1150" cy="310" r="3"/><circle cx="1180" cy="310" r="3"/><circle cx="1210" cy="310" r="3"/><circle cx="1240" cy="310" r="3"/>
  </g>

  <!-- Lockup -->
  <g transform="translate(96 70)">
    <rect width="64" height="64" rx="18" fill="url(#tile)"/>
    <path d="M18 24 H46 M32 24 V50" stroke="#ffffff" stroke-width="6.2" stroke-linecap="round"/>
    <circle cx="42" cy="44" r="4" fill="#a7f3d0"/>
  </g>
  <text x="176" y="100" font-family="'Inter Tight','Inter','Helvetica Neue',Arial,sans-serif" font-size="40" font-weight="700" letter-spacing="-1" fill="#0b1220">Trovant</text>
  <text x="178" y="128" font-family="'Inter','Helvetica Neue',Arial,sans-serif" font-size="19" font-weight="600" letter-spacing="2" fill="#0e9f6e">Talent</text>

  <!-- Headline -->
  <text x="96" y="210" font-family="'Inter Tight','Inter','Helvetica Neue',Arial,sans-serif" font-size="58" font-weight="700" letter-spacing="-2" fill="#0b1220">Better hiring. Stronger teams.</text>
  <text x="96" y="278" font-family="'Inter Tight','Inter','Helvetica Neue',Arial,sans-serif" font-size="58" font-weight="700" letter-spacing="-2" fill="#0e9f6e">Real impact.</text>

  <!-- Sub -->
  <text x="98" y="330" font-family="'Inter','Helvetica Neue',Arial,sans-serif" font-size="23" fill="#5b6b85">The confidential talent marketplace for maritime, energy, logistics and industrial professionals.</text>

  <text x="98" y="372" font-family="'Inter','Helvetica Neue',Arial,sans-serif" font-size="20" font-weight="600" letter-spacing="1" fill="#0e9f6e">trovanttalent.com</text>
</svg>
