<svg xmlns="http://www.w3.org/2000/svg" viewBox="0 0 1584 396" role="img" aria-label="Trovant Talent — LinkedIn banner">
  <defs>
    <linearGradient id="bg" x1="0" y1="0" x2="1" y2="0">
      <stop offset="0" stop-color="#eef7f3"/>
      <stop offset="0.5" stop-color="#ffffff"/>
      <stop offset="1" stop-color="#f1f7f4"/>
    </linearGradient>
    <linearGradient id="tile" x1="0" y1="0" x2="1" y2="1">
      <stop offset="0" stop-color="#10b981"/>
      <stop offset="1" stop-color="#0d9488"/>
    </linearGradient>
  </defs>

  <rect width="1584" height="396" fill="url(#bg)"/>

  <!-- Decoration kept on the LEFT / bottom-left so it sits BEHIND the profile
       avatar; all text is shifted right to clear the avatar overlap zone. -->
  <circle cx="150" cy="370" r="240" fill="#10b981" fill-opacity="0.09"/>
  <circle cx="80" cy="90" r="150" fill="#0d9488" fill-opacity="0.06"/>
  <g fill="#0d9488" fill-opacity="0.16">
    <circle cx="360" cy="70" r="3"/><circle cx="390" cy="70" r="3"/><circle cx="420" cy="70" r="3"/><circle cx="450" cy="70" r="3"/>
    <circle cx="360" cy="100" r="3"/><circle cx="390" cy="100" r="3"/><circle cx="420" cy="100" r="3"/><circle cx="450" cy="100" r="3"/>
    <circle cx="360" cy="130" r="3"/><circle cx="390" cy="130" r="3"/><circle cx="420" cy="130" r="3"/><circle cx="450" cy="130" r="3"/>
  </g>

  <!-- Lockup, top-right -->
  <g transform="translate(1158 40)">
    <rect width="60" height="60" rx="17" fill="url(#tile)"/>
    <path d="M17 22 H43 M30 22 V47" stroke="#ffffff" stroke-width="5.8" stroke-linecap="round"/>
    <circle cx="39" cy="41" r="3.8" fill="#a7f3d0"/>
  </g>
  <text x="1230" y="72" font-family="'Inter Tight','Inter','Helvetica Neue',Arial,sans-serif" font-size="36" font-weight="700" letter-spacing="-1" fill="#0b1220">Trovant</text>
  <text x="1232" y="98" font-family="'Inter','Helvetica Neue',Arial,sans-serif" font-size="17" font-weight="600" letter-spacing="2" fill="#0e9f6e">Talent</text>

  <!-- Headline, right-aligned (shifted right, clear of bottom-left avatar) -->
  <text x="1496" y="206" text-anchor="end" font-family="'Inter Tight','Inter','Helvetica Neue',Arial,sans-serif" font-size="52" font-weight="700" letter-spacing="-2" fill="#0b1220">Better hiring. Stronger teams.</text>
  <text x="1496" y="272" text-anchor="end" font-family="'Inter Tight','Inter','Helvetica Neue',Arial,sans-serif" font-size="52" font-weight="700" letter-spacing="-2" fill="#0e9f6e">Real impact.</text>

  <!-- Sub + domain, right-aligned -->
  <text x="1496" y="322" text-anchor="end" font-family="'Inter','Helvetica Neue',Arial,sans-serif" font-size="22" fill="#5b6b85">Confidential talent marketplace · maritime · energy · logistics · industrial</text>
  <text x="1496" y="366" text-anchor="end" font-family="'Inter','Helvetica Neue',Arial,sans-serif" font-size="20" font-weight="600" letter-spacing="1" fill="#0e9f6e">trovanttalent.com</text>
</svg>
